<svg xmlns="http://www.w3.org/2000/svg" version="1.1" xmlns:xlink="http://www.w3.org/1999/xlink" xmlns:svgjs="http://svgjs.dev/svgjs" width="1000" height="1000" viewBox="0 0 1000 1000"><rect width="1000" height="1000" fill="#ffffff"></rect><g transform="matrix(0.7,0,0,0.7,149.57575757575756,282.1265587044535)"><svg viewBox="0 0 396 247" data-background-color="#ffffff" preserveAspectRatio="xMidYMid meet" height="623" width="1000" xmlns="http://www.w3.org/2000/svg" xmlns:xlink="http://www.w3.org/1999/xlink"><g id="tight-bounds" transform="matrix(1,0,0,1,0.2400000000000091,-0.09999999999999432)"><svg viewBox="0 0 395.52 247.2" height="247.2" width="395.52"><g><svg></svg></g><g><svg viewBox="0 0 395.52 247.2" height="247.2" width="395.52"><g transform="matrix(1,0,0,1,39.55199999999999,88.45339517851694)"><svg viewBox="0 0 316.416 70.2932096429661" height="70.2932096429661" width="316.416"><g><svg viewBox="0 0 316.416 70.2932096429661" height="70.2932096429661" width="316.416"><g><svg viewBox="0 0 316.416 70.2932096429661" height="70.2932096429661" width="316.416"><g id="textblocktransform"><svg viewBox="0 0 316.416 70.2932096429661" height="70.2932096429661" width="316.416" id="textblock"><g><svg viewBox="0 0 316.416 70.2932096429661" height="70.2932096429661" width="316.416"><g transform="matrix(1,0,0,1,0,0)"><svg width="316.416" viewBox="2.5 -35.900001525878906 168.49000549316406 36.400001525878906" height="70.2932096429661" data-palette-color="#010c80"><g class="undefined-text-0" data-fill-palette-color="primary" id="text-0"><path d="M19.5 0L2.5 0 2.5-3.3Q3.65-3.35 4.42-3.6 5.2-3.85 5.63-4.75 6.05-5.65 6.05-7.65L6.05-7.65 6.05-26.8Q6.05-28.15 6.13-29.4 6.2-30.65 6.25-31.3L6.25-31.3Q5.45-31.25 4.25-31.23 3.05-31.2 2.5-31.15L2.5-31.15 2.5-35Q5.95-35.05 9.43-35.05 12.9-35.05 16.35-35.1L16.35-35.1Q22.35-35.15 25.88-32.88 29.4-30.6 29.15-26L29.15-26Q29.05-24.55 28.25-23.18 27.45-21.8 25.88-20.7 24.3-19.6 21.95-18.95L21.95-18.95 21.95-18.9Q26.95-18.1 29.3-15.58 31.65-13.05 31.65-9.95L31.65-9.95Q31.65-6.7 30.08-4.48 28.5-2.25 25.75-1.13 23 0 19.5 0L19.5 0ZM13.1-3.55L13.1-3.55Q14-3.55 14.8-3.55 15.6-3.55 16.4-3.58 17.2-3.6 17.95-3.6L17.95-3.6Q21-3.75 22.4-5.55 23.8-7.35 23.8-10.1L23.8-10.1Q23.8-12.4 22.85-13.73 21.9-15.05 20.43-15.6 18.95-16.15 17.35-16.15L17.35-16.15Q16.1-16.15 15.2-16.15 14.3-16.15 13.3-16.1L13.3-16.1 13.3-7.95Q13.3-6.6 13.25-5.4 13.2-4.2 13.1-3.55ZM13.3-27.4L13.3-19.65 15.9-19.7Q18-19.75 19.23-20.65 20.45-21.55 20.98-23.08 21.5-24.6 21.5-26.4L21.5-26.4Q21.5-28.4 20.7-29.53 19.9-30.65 18.7-31.15 17.5-31.65 16.2-31.6L16.2-31.6Q15.4-31.6 14.75-31.35 14.1-31.1 13.7-30.23 13.3-29.35 13.3-27.4L13.3-27.4ZM50.4 0L35.55 0 35.55-3.3Q36.7-3.35 37.47-3.6 38.25-3.85 38.67-4.75 39.1-5.65 39.1-7.65L39.1-7.65 39.1-26.8Q39.1-28.15 39.17-29.4 39.25-30.65 39.3-31.3L39.3-31.3Q38.5-31.25 37.3-31.23 36.1-31.2 35.55-31.15L35.55-31.15 35.55-35Q39.1-35.05 42.65-35.05 46.2-35.05 49.75-35.1L49.75-35.1Q54.15-35.15 57.4-34.1 60.65-33.05 62.4-30.7 64.15-28.35 64.05-24.35L64.05-24.35Q64-22.25 63.02-20.35 62.05-18.45 60.12-17 58.2-15.55 55.25-14.7L55.25-14.7Q56.2-14.3 57.12-13.4 58.05-12.5 58.7-11.5L58.7-11.5 61.05-8Q62.15-6.3 63-5.3 63.85-4.3 64.7-3.83 65.55-3.35 66.65-3.3L66.65-3.3 66.65 0 58.4 0Q57.5-0.65 56.62-1.88 55.75-3.1 54.75-4.7L54.75-4.7 51.05-10.7Q50.4-11.7 49.92-12.4 49.45-13.1 48.95-13.6L48.95-13.6Q48.15-13.6 47.6-13.6 47.05-13.6 46.35-13.6L46.35-13.6 46.35-8.25Q46.35-6.85 46.3-5.6 46.25-4.35 46.15-3.7L46.15-3.7Q46.7-3.75 47.55-3.78 48.4-3.8 49.22-3.83 50.05-3.85 50.4-3.85L50.4-3.85 50.4 0ZM48.75-17.2L48.75-17.2Q51.55-17.2 53.25-18.03 54.95-18.85 55.72-20.53 56.5-22.2 56.5-24.75L56.5-24.75Q56.5-27.15 55.75-28.53 55-29.9 53.87-30.58 52.75-31.25 51.6-31.43 50.45-31.6 49.7-31.6L49.7-31.6Q48.65-31.6 47.9-31.35 47.15-31.1 46.75-30.25 46.35-29.4 46.35-27.65L46.35-27.65 46.35-17.4Q46.9-17.35 47.5-17.28 48.1-17.2 48.75-17.2ZM92.1 0L77.5 0 77.5-3.3Q78.65-3.35 79.42-3.6 80.2-3.85 80.62-4.75 81.05-5.65 81.05-7.65L81.05-7.65 81.05-12 71.85-26.55Q71.15-27.7 70.55-29.1 69.95-30.5 69.95-31.3L69.95-31.3Q69.15-31.25 68.6-31.23 68.05-31.2 67.5-31.15L67.5-31.15 67.5-35 82.25-35 82.25-31.7Q80.8-31.8 79.85-31.4 78.9-31 78.7-30.13 78.5-29.25 79.3-27.85L79.3-27.85 83.1-21.6Q83.35-21.2 83.85-20.33 84.35-19.45 84.87-18.48 85.4-17.5 85.65-16.75L85.65-16.75 85.7-16.75Q85.95-17.35 86.55-18.55 87.15-19.75 88.05-21.65L88.05-21.65 90.65-26.75Q90.9-27.3 91.35-28.18 91.8-29.05 92.32-29.93 92.85-30.8 93.3-31.35L93.3-31.35Q92.5-31.3 91.25-31.25 90-31.2 89.45-31.15L89.45-31.15 89.45-35 100.5-35 100.5-31.7Q98.75-31.45 97.5-30.28 96.25-29.1 94.8-26.35L94.8-26.35Q93.2-23.25 91.55-20.1 89.9-16.95 88.3-13.85L88.3-13.85Q88.3-13.15 88.3-12.45 88.3-11.75 88.3-11.03 88.3-10.3 88.3-9.6 88.3-8.9 88.3-8.2L88.3-8.2Q88.3-6.85 88.25-5.6 88.2-4.35 88.1-3.7L88.1-3.7Q88.95-3.8 90.27-3.83 91.6-3.85 92.1-3.85L92.1-3.85 92.1 0ZM111.59 0L100.89 0 100.89-3.45Q102.29-3.45 103.14-4.25 103.99-5.05 104.57-6.35 105.14-7.65 105.69-9.15L105.69-9.15 115.44-35.9 118.94-35.9 129.59-8.65Q129.89-7.9 130.39-6.38 130.89-4.85 130.99-3.7L130.99-3.7Q131.84-3.8 132.62-3.83 133.39-3.85 133.89-3.85L133.89-3.85 133.89 0 120.44 0 120.44-3.3Q121.84-3.3 122.37-3.88 122.89-4.45 122.84-5.45 122.79-6.45 122.29-7.7L122.29-7.7 121.29-10.45 110.44-10.25 109.64-7.9Q109.39-7.25 108.92-5.98 108.44-4.7 108.04-3.85L108.04-3.85Q108.84-3.95 109.97-3.98 111.09-4 111.59-4L111.59-4 111.59 0ZM113.94-20.5L111.69-14 120.04-14 117.74-20.25Q117.09-22.05 116.59-23.88 116.09-25.7 115.84-27.1L115.84-27.1 115.79-27.1Q115.59-26.25 115.19-24.55 114.79-22.85 113.94-20.5L113.94-20.5ZM167.44 0.5L163.19 0.5 147.19-19.95Q146.54-20.8 145.84-21.75 145.14-22.7 144.44-23.7L144.44-23.7 144.39-23.7 144.49-8.2Q144.49-6.85 144.44-5.6 144.39-4.35 144.29-3.7L144.29-3.7Q145.09-3.8 146.32-3.83 147.54-3.85 148.04-3.85L148.04-3.85 148.04 0 136.64 0 136.64-3.3Q137.79-3.35 138.57-3.6 139.34-3.85 139.77-4.75 140.19-5.65 140.19-7.65L140.19-7.65 140.09-26.8Q140.09-28.15 140.14-29.4 140.19-30.65 140.29-31.3L140.29-31.3Q139.49-31.25 138.27-31.23 137.04-31.2 136.49-31.15L136.49-31.15 136.49-35 144.34-35 159.64-15.7Q160.89-14.1 161.72-12.95 162.54-11.8 163.14-10.95L163.14-10.95 163.19-10.95 163.19-26.8Q163.19-28.15 163.24-29.4 163.29-30.65 163.34-31.3L163.34-31.3Q162.54-31.25 161.34-31.23 160.14-31.2 159.59-31.15L159.59-31.15 159.59-35 170.99-35 170.99-31.7Q169.89-31.65 169.09-31.4 168.29-31.15 167.87-30.28 167.44-29.4 167.44-27.35L167.44-27.35 167.44 0.5Z" fill="#010c80" data-fill-palette-color="primary"></path></g></svg></g></svg></g></svg></g></svg></g></svg></g></svg></g><g mask="url(&quot;#0193c161-357b-4342-a27b-adafbf8116a3&quot;)"><g transform="matrix(3.8733733451555374, 0, 0, 3.8733733451555374, 75.16384169414421, 1)"><svg xmlns="http://www.w3.org/2000/svg" xmlns:xlink="http://www.w3.org/1999/xlink" version="1.1" x="0" y="0" viewBox="18.350997924804688 18.347999572753906 63.30200958251953 63.303993225097656" enable-background="new 0 0 100 100" xml:space="preserve" height="63.303993225097656" width="63.30200958251953" class="icon-none" data-fill-palette-color="accent" id="none"><g fill="#00ffef" data-fill-palette-color="accent"><path fill="#00ffef" d="M80.951 48.597c-4.329-3.261-9.009-4.911-13.907-4.911-0.107 0-0.213 0-0.32 0.002-0.104-0.002-0.212-0.002-0.318-0.002-0.431 0-0.857 0.029-1.283 0.054 0.399-0.354 0.792-0.717 1.168-1.103 3.598-3.496 5.814-8.047 6.587-13.531 0.078-0.548-0.105-1.098-0.496-1.487-0.391-0.39-0.941-0.573-1.488-0.497-5.482 0.773-10.035 2.99-13.529 6.589-0.384 0.373-0.744 0.764-1.097 1.161 0.032-0.53 0.054-1.062 0.046-1.597 0.073-5.016-1.579-9.801-4.91-14.227-0.331-0.44-0.851-0.7-1.401-0.7-0.552 0-1.072 0.26-1.404 0.7-3.33 4.425-4.981 9.211-4.909 14.227-0.008 0.535 0.014 1.066 0.045 1.597-0.352-0.396-0.713-0.788-1.097-1.161-3.493-3.599-8.045-5.816-13.529-6.589-0.549-0.076-1.098 0.107-1.487 0.497-0.39 0.391-0.574 0.941-0.498 1.487 0.774 5.484 2.99 10.036 6.588 13.531 0.375 0.386 0.769 0.748 1.168 1.103-0.427-0.024-0.854-0.054-1.284-0.054-0.107 0-0.213 0-0.319 0.002-0.106-0.002-0.212-0.002-0.321-0.002-4.898 0-9.577 1.65-13.905 4.911-0.44 0.332-0.7 0.851-0.7 1.402 0 0.553 0.259 1.071 0.7 1.403 4.329 3.26 9.008 4.91 13.908 4.91 0.106 0 0.212 0 0.318-0.002 0.106 0.002 0.223-0.006 0.318 0.002 0.432 0 0.859-0.029 1.288-0.053-0.399 0.354-0.793 0.717-1.168 1.104-3.599 3.494-5.816 8.047-6.59 13.529-0.077 0.547 0.107 1.096 0.498 1.486 0.331 0.332 0.779 0.516 1.242 0.516 0.081 0 0.163-0.006 0.246-0.018 5.484-0.773 10.036-2.99 13.529-6.588 0.384-0.373 0.745-0.766 1.097-1.162-0.031 0.531-0.053 1.062-0.045 1.598-0.073 5.016 1.579 9.801 4.909 14.227 0.332 0.441 0.853 0.701 1.404 0.701 0.551 0 1.07-0.26 1.402-0.701 3.33-4.426 4.982-9.211 4.909-14.227 0.008-0.535-0.014-1.066-0.046-1.596 0.353 0.396 0.712 0.789 1.097 1.16 3.494 3.598 8.046 5.814 13.529 6.588 0.082 0.012 0.165 0.018 0.246 0.018 0.461 0 0.91-0.184 1.242-0.516 0.391-0.391 0.574-0.939 0.496-1.486-0.772-5.484-2.99-10.037-6.588-13.529-0.375-0.387-0.77-0.75-1.169-1.104 0.428 0.023 0.855 0.053 1.286 0.053 0.107 0 0.213 0 0.317-0.002 0.106 0.002 0.213 0.002 0.318 0.002 0.001 0 0 0 0.001 0 4.899 0 9.579-1.65 13.908-4.91 0.44-0.332 0.7-0.85 0.7-1.403C81.651 49.448 81.392 48.929 80.951 48.597zM48.784 49.509l1.217-1.215 1.214 1.215-1.214 1.215L48.784 49.509zM59.828 36.215c0.013-0.014 0.026-0.027 0.039-0.04 2.41-2.489 5.449-4.198 9.058-5.099-0.901 3.607-2.61 6.646-5.099 9.057-0.014 0.012-0.027 0.027-0.04 0.04-2.411 2.489-5.449 4.198-9.057 5.099C55.63 41.665 57.339 38.624 59.828 36.215zM47.2 33.247c-0.054-3.464 0.886-6.822 2.801-10.009 1.914 3.187 2.854 6.545 2.799 10.008 0 0.02 0 0.039 0 0.058 0.056 3.463-0.885 6.82-2.799 10.008-1.915-3.188-2.854-6.544-2.801-10.009C47.2 33.285 47.2 33.266 47.2 33.247zM31.077 31.076c3.608 0.9 6.647 2.609 9.056 5.099 0.014 0.013 0.027 0.026 0.04 0.04 2.489 2.409 4.199 5.448 5.098 9.057-3.606-0.901-6.646-2.61-9.057-5.101-0.013-0.013-0.027-0.026-0.039-0.039C33.686 37.722 31.977 34.684 31.077 31.076zM33.303 52.799c-0.009 0-0.018 0-0.027 0s-0.019 0-0.029 0c-0.096 0.002-0.192 0.004-0.289 0.004-3.361 0-6.62-0.941-9.72-2.803 3.099-1.861 6.358-2.801 9.717-2.801 0.098 0 0.195 0 0.292 0.002 0.019 0.001 0.038 0.001 0.056 0 0.098-0.002 0.195-0.002 0.292-0.002 3.359 0 6.619 0.939 9.717 2.801-3.099 1.862-6.359 2.803-9.719 2.803C33.496 52.803 33.399 52.801 33.303 52.799zM40.174 63.785c-0.014 0.014-0.027 0.025-0.041 0.039-2.409 2.488-5.448 4.197-9.056 5.1 0.899-3.607 2.608-6.646 5.098-9.059 0.013-0.012 0.026-0.025 0.041-0.039 2.409-2.488 5.448-4.197 9.056-5.098C44.371 58.336 42.662 61.375 40.174 63.785zM52.8 66.752c0.056 3.465-0.885 6.822-2.799 10.01-1.915-3.188-2.854-6.545-2.801-10.01 0-0.02 0-0.037 0-0.055-0.054-3.465 0.886-6.822 2.801-10.01 1.914 3.188 2.854 6.545 2.799 10.01C52.8 66.715 52.8 66.732 52.8 66.752zM68.924 68.924c-3.607-0.902-6.646-2.611-9.058-5.098-0.013-0.014-0.025-0.027-0.038-0.041-2.489-2.41-4.198-5.449-5.099-9.057 3.607 0.9 6.646 2.609 9.056 5.098 0.014 0.014 0.026 0.027 0.04 0.039C66.314 62.277 68.022 65.314 68.924 68.924zM67.042 52.803c-0.096 0-0.192-0.002-0.289-0.004-0.01 0-0.02 0-0.029 0-0.009 0-0.018 0-0.028 0-0.096 0.002-0.192 0.004-0.289 0.004-3.361 0-6.62-0.941-9.718-2.803 3.098-1.861 6.356-2.801 9.717-2.801 0.097 0 0.194 0 0.29 0.002 0.02 0.001 0.039 0.001 0.058 0 0.097-0.002 0.194-0.002 0.291-0.002 3.36 0 6.62 0.939 9.718 2.801C73.664 51.861 70.404 52.803 67.042 52.803z" data-fill-palette-color="accent"></path><circle fill="#00ffef" cx="66.725" cy="50" r="2.3" data-fill-palette-color="accent"></circle><circle fill="#00ffef" cx="33.276" cy="50" r="2.3" data-fill-palette-color="accent"></circle><circle fill="#00ffef" cx="50" cy="66.725" r="2.3" data-fill-palette-color="accent"></circle><circle fill="#00ffef" cx="50" cy="33.275" r="2.3" data-fill-palette-color="accent"></circle><circle fill="#00ffef" cx="61.827" cy="61.825" r="2.3" data-fill-palette-color="accent"></circle><circle fill="#00ffef" cx="38.174" cy="38.174" r="2.3" data-fill-palette-color="accent"></circle><circle fill="#00ffef" cx="38.174" cy="61.825" r="2.3" data-fill-palette-color="accent"></circle><circle fill="#00ffef" cx="61.827" cy="38.174" r="2.3" data-fill-palette-color="accent"></circle></g></svg></g></g></svg></g><defs><mask id="0193c161-357b-4342-a27b-adafbf8116a3"><rect width="640" height="400" fill="white"></rect><rect width="348.05760000000004" height="103.48228916231184" fill="black" y="71.85885541884407" x="23.731199999999973" id="transform-me"></rect></mask></defs></svg><rect width="395.52" height="247.2" fill="none" stroke="none" visibility="hidden"></rect></g></svg></g></svg>